<svg id="vuesax_outline_message-favorite" data-name="vuesax/outline/message-favorite" xmlns="http://www.w3.org/2000/svg" width="24" height="24" viewBox="0 0 24 24">
  <g id="vuesax_outline_message-favorite-2" data-name="vuesax/outline/message-favorite">
    <g id="message-favorite">
      <path id="Vector" d="M8.95,20.6l-1.5-2a.377.377,0,0,0-.21-.1H6.75C2.58,18.5,0,17.37,0,11.75v-5C0,2.33,2.33,0,6.75,0h4a.755.755,0,0,1,.75.75.755.755,0,0,1-.75.75h-4C3.17,1.5,1.5,3.17,1.5,6.75v5C1.5,16.27,3.05,17,6.75,17h.5a1.876,1.876,0,0,1,1.4.7l1.5,2a.694.694,0,0,0,1.2,0l1.5-2a1.752,1.752,0,0,1,1.4-.7h.5C18.33,17,20,15.33,20,11.75v-5a.75.75,0,0,1,1.5,0v5c0,4.42-2.33,6.75-6.75,6.75h-.5a.261.261,0,0,0-.2.1l-1.5,2a2.168,2.168,0,0,1-3.6,0Z" transform="translate(1.25 1.25)"/>
      <path id="Vector-2" data-name="Vector" d="M0,1A1,1,0,1,1,1,2,1,1,0,0,1,0,1Z" transform="translate(11 10)"/>
      <path id="Vector-3" data-name="Vector" d="M0,1A1,1,0,1,1,1,2,1,1,0,0,1,0,1Z" transform="translate(15 10)"/>
      <path id="Vector-4" data-name="Vector" d="M0,1A1,1,0,1,1,1,2,1,1,0,0,1,0,1Z" transform="translate(7 10)"/>
      <path id="Vector-5" data-name="Vector" d="M3.663,6.5a4.505,4.505,0,0,1-3.51-2.89,2.942,2.942,0,0,1,.16-2.26A2.482,2.482,0,0,1,1.784.105,2.378,2.378,0,0,1,2.483,0a2.257,2.257,0,0,1,1.18.326A2.264,2.264,0,0,1,4.846,0a2.438,2.438,0,0,1,.707.105,2.482,2.482,0,0,1,1.471,1.24,2.942,2.942,0,0,1,.16,2.26A4.6,4.6,0,0,1,3.663,6.5ZM2.47,1.509a.915.915,0,0,0-.257.037.937.937,0,0,0-.58.49,1.5,1.5,0,0,0-.06,1.09A3.23,3.23,0,0,0,3.684,5a3.259,3.259,0,0,0,2.08-1.86,1.488,1.488,0,0,0-.07-1.1.938.938,0,0,0-.58-.49A.863.863,0,0,0,4.828,1.5a.646.646,0,0,0-.545.249.764.764,0,0,1-.6.329.794.794,0,0,1-.62-.3A.741.741,0,0,0,2.47,1.509Z" transform="translate(14.337 1.254)"/>
      <path id="Vector-6" data-name="Vector" d="M24,0V24H0V0Z" opacity="0"/>
    </g>
  </g>
</svg>
